<svg xmlns="http://www.w3.org/2000/svg" viewBox="0 0 171.75 171.75"><defs><style>.cls-2{fill:#fff}</style></defs><g id="Layer_2" data-name="Layer 2"><g id="Layer_1-2" data-name="Layer 1"><path d="M57.34 0h114.41v171.75H0V57.34A57.34 57.34 0 0 1 57.34 0Z" fill="#231f20"/><path class="cls-2" d="M104 130.75c0 1.6.36 2 .79 2.11v.53h-3.83a5.81 5.81 0 0 1-.33-1.6 5.47 5.47 0 0 1-4.36 2c-2 0-4.11-1.14-4.11-3.93 0-2.64 1.67-4 3.93-4.32l3.19-.48c.56-.07 1.25-.3 1.25-1.06 0-1.5-1.42-1.57-2.34-1.57a1.91 1.91 0 0 0-2.19 1.83h-3.44c.41-4.13 3.27-4.72 6-4.72 1.9 0 5.37.59 5.37 3.91Zm-3.47-3.93a5.21 5.21 0 0 1-2.41.74c-1.32.23-2.41.56-2.41 2a1.55 1.55 0 0 0 1.65 1.62c1.57 0 3.17-1 3.17-2.66ZM111.25 133.39h-3.55v-10.95h-2v-2.54h2v-1.09c0-2.79 1.52-3.86 4-3.86 1 0 1.52 0 1.82.06v2.86h-1c-1.21 0-1.24.38-1.24 1.5v.53h2.31v2.54h-2.31ZM115.56 119.9H119v2.33c.74-1.37 1.55-2.69 3.7-2.69a5.36 5.36 0 0 1 .69.06v3.6a6.84 6.84 0 0 0-1 0c-2.76 0-3.27 1.72-3.27 3.22v7h-3.55ZM129.11 118.3h-3.55V115h3.55Zm0 1.6v13.49h-3.55V119.9ZM144.12 128.47a5.78 5.78 0 0 1-6.16 5.28c-5.07 0-6.24-3.88-6.24-6.72 0-4.37 1.9-7.49 6.47-7.49 2.13 0 5.63 1 6 5.18h-3.61a2.28 2.28 0 0 0-2.35-2.18c-2.24 0-2.82 2.23-2.82 3.9 0 1.47 0 4.39 2.74 4.39a2.47 2.47 0 0 0 2.41-2.36ZM157.54 130.75c0 1.6.35 2 .78 2.11v.53h-3.83a6.2 6.2 0 0 1-.33-1.6 5.47 5.47 0 0 1-4.36 2c-2 0-4.11-1.14-4.11-3.93 0-2.64 1.68-4 3.93-4.32l3.2-.48c.56-.07 1.24-.3 1.24-1.06 0-1.5-1.42-1.57-2.33-1.57a1.9 1.9 0 0 0-2.18 1.87h-3.43c.41-4.13 3.28-4.72 6-4.72 1.9 0 5.38.59 5.38 3.91Zm-3.48-3.93a5.16 5.16 0 0 1-2.41.74c-1.32.23-2.41.56-2.41 2a1.55 1.55 0 0 0 1.65 1.62 2.93 2.93 0 0 0 3.17-2.66ZM102.37 143.38v12.78c0 2.33-.18 6.21-6.83 6.21-2.79 0-5.73-1.19-5.88-4.06h3.86c.15.69.43 1.37 2.48 1.37s2.82-.91 2.82-3.09V154.94a3.69 3.69 0 0 1-3.61 2c-3.24 0-5.8-2.25-5.8-7S92 143 95 143a4.06 4.06 0 0 1 4 2.36v-2ZM95.82 154c2.41 0 3-2 3-3.9 0-2.19-1.06-4-3-4-1.32 0-2.79 1-2.79 4.11-.03 1.71.69 3.79 2.79 3.79ZM105.46 143.38h3.4v2.33c.74-1.37 1.55-2.69 3.7-2.69h.69v3.6a6.84 6.84 0 0 0-1 0c-2.76 0-3.27 1.73-3.27 3.22v7h-3.55ZM121 157.22c-3.63 0-6.9-2.23-6.9-7.1s3.27-7.1 6.9-7.1 6.9 2.23 6.9 7.1-3.32 7.1-6.9 7.1Zm0-11.22c-2.74 0-3.25 2.39-3.25 4.11s.51 4.11 3.25 4.11 3.24-2.38 3.24-4.11S123.7 146 121 146ZM142.52 156.87h-3.4V155h-.05a4.47 4.47 0 0 1-4.11 2.25c-2.67 0-4.59-1.52-4.59-5v-8.87h3.55v8.36c0 2.08 1.22 2.49 2.31 2.49s2.73-.66 2.73-3.07v-7.78h3.56ZM149.16 145.33h.05a4.29 4.29 0 0 1 4-2.31c3 0 5.61 2.28 5.61 6.95 0 3.7-1.68 7.25-5.68 7.25a3.94 3.94 0 0 1-3.81-2.08h-.05v7h-3.55v-18.76h3.4Zm3.12 9c2.28 0 2.92-2.49 2.92-4.09 0-2.13-.76-4.13-3-4.13-2.44 0-3 2.18-3 4.34-.04 1.98.8 3.86 3.08 3.86ZM75 97.43a4.32 4.32 0 0 1 3.91-2.11c3 0 5.6 2.28 5.6 7 0 3.7-1.67 7.25-5.68 7.25a4.3 4.3 0 0 1-3.91-2v1.7h-3.5V91H75Zm2.89 1c-2.43 0-3 2.18-3 4.34 0 2 .88 3.88 3.14 3.88s2.92-2.49 2.92-4.09c-.07-2.17-.83-4.17-3.09-4.17ZM98.61 105.21a5.84 5.84 0 0 1-5.94 4.31c-3.8 0-6.72-1.82-6.72-7.38 0-1.62.56-6.82 6.47-6.82 2.66 0 6.34 1.27 6.34 7.43v.64H89.5c.1 1 .31 3.29 3.17 3.29a2.27 2.27 0 0 0 2.33-1.47Zm-3.5-4.13c-.21-2.18-1.6-2.84-2.74-2.84-1.68 0-2.56 1.06-2.77 2.84ZM108.12 108.94c-1.68 5-2.13 5.65-5.23 5.65h-1.59v-2.89a3.7 3.7 0 0 0 .68 0c1.29 0 2-.17 2.33-2l-5-14h4l2.89 9.94 2.8-9.96h3.75ZM120.32 109.52c-3.63 0-6.9-2.23-6.9-7.1s3.27-7.1 6.9-7.1 6.9 2.23 6.9 7.1-3.28 7.1-6.9 7.1Zm0-11.21c-2.74 0-3.25 2.39-3.25 4.11s.51 4.11 3.25 4.11 3.24-2.38 3.24-4.11-.5-4.11-3.24-4.11ZM141.9 109.17h-3.55V101c0-1 0-2.67-2.31-2.67-1.57 0-2.79 1.07-2.79 3.12v7.74h-3.55V95.68h3.4v2h.05a4.35 4.35 0 0 1 4.06-2.33c2.64 0 4.69 1.55 4.69 4.52ZM157.52 109.17h-3.47v-1.7H154a4.29 4.29 0 0 1-3.91 2c-4 0-5.68-3.55-5.68-7.25 0-4.67 2.64-7 5.61-7a4.31 4.31 0 0 1 3.9 2.11h.08V91h3.55Zm-6.52-2.56c2.26 0 3.14-1.88 3.14-3.88 0-2.16-.6-4.34-3-4.34-2.26 0-3 2-3 4.13-.08 1.6.56 4.09 2.86 4.09Z"/></g></g></svg>